<svg xmlns="http://www.w3.org/2000/svg" version="1.1" xmlns:xlink="http://www.w3.org/1999/xlink" xmlns:svgjs="http://svgjs.dev/svgjs" width="1000" height="623" viewBox="0 0 1000 623"><g transform="matrix(1,0,0,1,-0.6060606060606233,0.2522267206477409)"><svg viewBox="0 0 396 247" data-background-color="#ffffff" preserveAspectRatio="xMidYMid meet" height="623" width="1000" xmlns="http://www.w3.org/2000/svg" xmlns:xlink="http://www.w3.org/1999/xlink"><g id="tight-bounds" transform="matrix(1,0,0,1,0.2400000000000091,-0.09999999999999432)"><svg viewBox="0 0 395.52 247.2" height="247.2" width="395.52"><g><svg></svg></g><g><svg viewBox="0 0 395.52 247.2" height="247.2" width="395.52"><g transform="matrix(1,0,0,1,75.54432,93.43491086403215)"><svg viewBox="0 0 244.43135999999998 60.330178271935694" height="60.330178271935694" width="244.43135999999998"><g><svg viewBox="0 0 244.43135999999998 60.330178271935694" height="60.330178271935694" width="244.43135999999998"><g><svg viewBox="0 0 244.43135999999998 60.330178271935694" height="60.330178271935694" width="244.43135999999998"><g><svg viewBox="0 0 244.43135999999998 60.330178271935694" height="60.330178271935694" width="244.43135999999998"><g><svg viewBox="0 0 244.43135999999998 60.330178271935694" height="60.330178271935694" width="244.43135999999998" id="textblock"><g><svg viewBox="0 0 244.43135999999998 60.330178271935694" height="60.330178271935694" width="244.43135999999998"><g transform="matrix(1,0,0,1,0,0)"><svg width="244.43135999999998" viewBox="3.3499999046325684 -36.25 149.2899932861328 36.849998474121094" height="60.330178271935694" data-palette-color="#e8772e"><path d="M13.3-29.5L3.35-29.5 3.35-36.25 13.3-36.25 13.3-29.5ZM13.3 0L3.35 0 3.35-26.4 13.3-26.4 13.3 0ZM29.6-23.65Q31.2-25.25 33.35-26.13 35.5-27 37.85-27L37.85-27Q42.45-27 44.75-24.45 47.05-21.9 47.05-17.1L47.05-17.1 47.05 0 37.1 0 37.1-15.9Q37.1-17.6 36.22-18.63 35.35-19.65 33.75-19.65L33.75-19.65Q31.9-19.65 30.75-18.45 29.6-17.25 29.6-15.5L29.6-15.5 29.6 0 19.65 0 19.65-36.25 29.6-36.25 29.6-23.65ZM69.05-27.05Q70.2-27.05 71.09-26.78 72-26.5 72-26.45L72-26.45 72-18.1 68.8-18.1Q65.7-18.1 64.32-16.5 62.95-14.9 62.95-11.75L62.95-11.75 62.95 0 53 0 53-26.4 61.15-26.4 61.8-22.4Q62.7-24.7 64.65-25.88 66.59-27.05 69.05-27.05L69.05-27.05ZM89.64-27Q96.59-27 100.57-23.48 104.54-19.95 104.54-13.2L104.54-13.2Q104.54-6.45 100.57-2.93 96.59 0.6 89.64 0.6L89.64 0.6Q82.69 0.6 78.74-2.9 74.79-6.4 74.79-13.2L74.79-13.2Q74.79-20 78.74-23.5 82.69-27 89.64-27L89.64-27ZM89.64-20.25Q84.74-20.25 84.74-14.6L84.74-14.6 84.74-11.75Q84.74-6.15 89.64-6.15L89.64-6.15Q94.59-6.15 94.59-11.75L94.59-11.75 94.59-14.6Q94.59-20.25 89.64-20.25L89.64-20.25ZM142.94 0L133.24 0 129.14-14.7 128.94-14.7 124.79 0 115.09 0 105.44-26.4 116.14-26.4 120.14-10.8 120.49-10.8 124.64-26.4 134.54-26.4 138.54-10.8 138.89-10.8 142.94-26.4 152.64-26.4 142.94 0Z" opacity="1" transform="matrix(1,0,0,1,0,0)" fill="#e8772e" class="undefined-text-0" data-fill-palette-color="primary" id="text-0"></path></svg></g></svg></g></svg></g></svg></g></svg></g></svg></g></svg></g><path d="M198.811 87.435L198.811 28.772 9.155 28.772 9.155 218.428 198.811 218.428 198.811 159.765 193.37 159.765 193.37 212.987 14.595 212.987 14.595 34.213 193.37 34.213 193.37 87.435Z" fill="#e8772e" stroke="transparent" data-fill-palette-color="primary"></path></svg></g><defs></defs></svg><rect width="395.52" height="247.2" fill="none" stroke="none" visibility="hidden"></rect></g></svg></g></svg>